<?xml version="1.0" standalone="no"?>
<!DOCTYPE svg PUBLIC "-//W3C//DTD SVG 20010904//EN"
 "http://www.w3.org/TR/2001/REC-SVG-20010904/DTD/svg10.dtd">
<svg version="1.0" xmlns="http://www.w3.org/2000/svg"
 width="558.000000pt" height="558.000000pt" viewBox="0 0 558.000000 558.000000"
 preserveAspectRatio="xMidYMid meet">
<metadata>
Created by potrace 1.14, written by Peter Selinger 2001-2017
</metadata>
<g transform="translate(0.000000,558.000000) scale(0.100000,-0.100000)"
fill="#000000" stroke="none">
<path d="M2609 5576 c-2 -2 -40 -7 -84 -10 -87 -7 -201 -24 -280 -41 -16 -3
-41 -8 -55 -11 -23 -4 -53 -11 -87 -21 -7 -1 -21 -5 -30 -7 -10 -3 -18 -5 -18
-6 0 -1 -8 -3 -17 -5 -46 -9 -238 -75 -280 -96 -10 -5 -22 -9 -28 -9 -16 0
-243 -110 -262 -128 -10 -8 -18 -12 -18 -9 0 3 -28 -12 -62 -34 -35 -21 -75
-44 -90 -50 -16 -6 -28 -14 -28 -19 0 -4 -13 -13 -30 -20 -16 -7 -30 -15 -30
-19 0 -4 -14 -15 -31 -25 -33 -19 -202 -154 -257 -204 -132 -120 -194 -186
-324 -349 -18 -23 -41 -52 -52 -65 -34 -43 -166 -247 -166 -258 0 -5 -5 -10
-12 -10 -6 0 -8 -3 -5 -6 4 -4 -2 -19 -12 -33 -78 -114 -223 -481 -268 -676
-2 -11 -5 -24 -7 -30 -4 -17 -26 -119 -30 -145 -3 -14 -5 -25 -6 -25 -1 0 -3
-20 -6 -44 -2 -25 -7 -56 -9 -70 -13 -67 -20 -192 -20 -366 0 -193 5 -261 25
-395 7 -41 14 -87 16 -101 2 -14 15 -73 29 -130 14 -57 27 -113 30 -124 6 -26
64 -204 75 -230 4 -11 15 -36 24 -57 9 -20 16 -39 16 -42 0 -5 114 -238 149
-304 47 -90 207 -315 311 -437 65 -77 275 -279 365 -351 108 -86 266 -194 355
-240 30 -16 57 -32 60 -35 8 -10 264 -131 278 -132 6 0 12 -3 12 -7 0 -4 6 -7
13 -8 6 0 46 -13 87 -28 106 -38 285 -89 345 -98 11 -2 20 -4 20 -5 0 -3 31
-9 75 -15 19 -3 49 -7 65 -10 218 -41 624 -41 870 -2 32 5 94 18 155 31 3 0
23 5 45 10 22 4 45 9 52 11 56 11 319 99 325 109 4 5 8 7 8 3 0 -7 70 22 192
81 37 18 70 32 74 31 4 -1 10 2 13 7 6 9 150 91 183 105 10 4 18 12 18 18 0 5
5 10 11 10 10 0 158 97 169 111 3 4 27 23 54 44 44 33 65 51 145 123 69 62
121 115 176 177 33 38 67 76 75 85 9 8 29 34 45 55 17 22 33 42 37 45 3 3 23
30 44 60 20 30 40 57 44 60 14 11 146 232 156 263 4 9 10 17 15 17 5 0 8 3 7
8 -1 4 16 45 39 92 52 109 75 160 78 174 1 6 7 24 14 40 14 35 62 183 65 199
1 7 5 17 8 23 4 6 9 21 12 35 3 13 8 35 11 49 3 14 8 34 10 45 5 22 12 54 20
87 3 13 7 37 10 53 2 17 7 41 9 55 29 156 41 518 24 700 -8 84 -32 242 -38
260 -1 3 -2 9 -1 14 1 5 -1 16 -5 25 -4 9 -9 30 -11 46 -2 17 -11 53 -19 80
-9 28 -17 59 -20 71 -5 26 -58 189 -75 229 -7 17 -13 32 -14 35 -8 25 -18 48
-26 62 -5 10 -9 25 -9 33 0 8 -4 15 -10 15 -5 0 -10 7 -10 15 0 14 -97 212
-110 225 -3 3 -16 25 -29 50 -14 25 -27 47 -31 50 -4 3 -17 25 -31 50 -13 25
-29 50 -35 55 -6 6 -22 26 -35 45 -13 19 -29 41 -36 48 -7 7 -13 16 -13 20 0
4 -13 21 -28 38 -15 18 -43 51 -62 75 -48 59 -262 274 -329 329 -30 25 -59 50
-65 56 -20 18 -201 146 -216 152 -8 3 -17 9 -20 12 -8 10 -154 94 -159 91 -2
-1 -7 1 -10 6 -3 4 -28 19 -56 33 -27 14 -52 27 -55 30 -6 6 -175 77 -260 109
-80 30 -294 93 -365 107 -11 2 -31 6 -45 9 -14 3 -42 8 -64 10 -21 3 -41 7
-45 9 -4 3 -36 7 -71 11 -36 3 -78 8 -95 11 -35 6 -451 15 -456 10z"/>
</g>
</svg>
