<svg xmlns="http://www.w3.org/2000/svg" version="1.1" xmlns:xlink="http://www.w3.org/1999/xlink" width="1000" height="1000"><g clip-path="url(#SvgjsClipPath1154)"><rect width="1000" height="1000" fill="#ffffff"></rect><g transform="matrix(7.792207792207792,0,0,7.792207792207792,200,200)"><svg xmlns="http://www.w3.org/2000/svg" version="1.1" xmlns:xlink="http://www.w3.org/1999/xlink" width="77.528pt" height="77.5769pt"><svg xmlns="http://www.w3.org/2000/svg" viewBox="3.9248 12.3633 77.528 77.5769" width="77.528pt" height="77.5769pt">
  <g transform="matrix(0.08810000866651535, 0, 0, -0.08810000866651535, -1.361167907714842, 95.22618103027344)" fill="#000000" stroke="none" style="">
    <path d="M 67 934 C 63 930 60 732 60 493 L 60 60 L 498 62 C 879 65 935 67 935 80 C 935 90 923 96 895 98 L 855 101 L 858 200 C 861 291 863 300 881 300 C 891 300 909 309 920 320 C 938 338 940 353 940 465 C 940 661 922 680 740 680 C 558 680 540 661 540 465 C 540 353 542 338 560 320 C 571 309 589 300 599 300 C 617 300 619 291 622 200 L 625 100 L 84.216 92.015 L 85.448 315.149 L 83.448 643.978 C 78.023 927.702 91 958 67 934 Z M 879 617 C 899 595 900 585 898 469 C 895 367 892 345 880 345 C 868 345 864 363 862 433 C 860 511 857 520 840 520 C 821 520 820 510 818 313 L 815 105 L 790 105 L 765 105 L 762 233 C 760 351 758 360 740 360 C 722 360 720 351 718 233 L 715 105 L 690 105 L 665 105 L 662 313 C 660 510 659 520 640 520 C 623 520 620 511 618 433 C 616 363 612 345 600 345 C 588 345 585 367 582 469 C 580 585 581 595 601 617 C 622 639 631 640 740 640 C 849 640 858 639 879 617 Z"></path>
    <path d="M695 931 c-45 -20 -70 -60 -70 -112 0 -42 5 -53 33 -81 28 -28 39 -33 82 -33 43 0 54 5 82 33 28 28 33 39 33 82 0 42 -5 54 -31 81 -33 33 -92 46 -129 30z m100 -56 c16 -15 25 -36 25 -55 0 -19 -9 -40 -25 -55 -15 -16 -36 -25 -55 -25 -19 0 -40 9 -55 25 -16 15 -25 36 -25 55 0 19 9 40 25 55 15 16 36 25 55 25 19 0 40 -9 55 -25z"></path>
  </g>
  <path style="fill: none; stroke: rgb(0, 0, 0);" d="M 6.624 71.795 L 25 62.179 L 39.957 42.521 L 53.205 13.889" transform="matrix(1, 0, 0, 1, 1.7763568394002505e-15, 0)"></path>
</svg></svg></g></g><defs><clipPath id="SvgjsClipPath1154"><rect width="1000" height="1000" x="0" y="0" rx="150" ry="150"></rect></clipPath></defs></svg>